/* XPM */
static char * close_active_xpm[] = {
"24 24 38 1",
" 	c None",
".	c #E7E8EB",
"+	c #E8DCDF",
"@	c #EDA2A6",
"#	c #F1797F",
"$	c #F3656C",
"%	c #F17A80",
"&	c #EDA1A7",
"*	c #EBBABE",
"=	c #F3666D",
"-	c #F46067",
";	c #EABBBF",
">	c #F36067",
",	c #F36E74",
"'	c #F36C73",
")	c #F3676E",
"!	c #E7DCDF",
"~	c #F7F7F8",
"{	c #F4D3D6",
"]	c #F36269",
"^	c #F4D2D4",
"/	c #EDA2A8",
"(	c #F4C4C8",
"_	c #F7F8F9",
":	c #F4D5D8",
"<	c #F4C9CD",
"[	c #F4C8CB",
"}	c #F3CBCE",
"|	c #F4D9DC",
"1	c #F3646B",
"2	c #F3C3C7",
"3	c #F6F2F3",
"4	c #F3BFC3",
"5	c #EDA3A8",
"6	c #F3686E",
"7	c #E7DDE0",
"8	c #EABCC0",
"9	c #F4656D",
"........................",
"........................",
"........................",
"........................",
"........................",
"........+@#$$%&+........",
".......*=------=;.......",
"......*>-------->;......",
".....+=--,----'--)!.....",
".....@---~{]]^~---/.....",
".....#---(_::_<---%.....",
".....=----[__}----=.....",
".....=---]:__|1---).....",
".....#---{_22_:---%.....",
".....&---34--43---5.....",
".....+=----------67.....",
"......;>-------->8......",
".......;)------68.......",
"........!/%99%57........",
"........................",
"........................",
"........................",
"........................",
"........................"};
