/* XPM */
static char * top_left_xpm[] = {
"5 44 6 1",
" 	c None",
".	c #DCDDE0",
"+	c #EEEFF1",
"@	c #CBCCD1",
"#	c #EAEBED",
"$	c #E7E8EB",
"  ...",
" .+++",
"@+###",
"@$$$$",
"@$$$$",
"@$$$$",
"@$$$$",
"@$$$$",
"@$$$$",
"@$$$$",
"@$$$$",
"@$$$$",
"@$$$$",
"@$$$$",
"@$$$$",
"@$$$$",
"@$$$$",
"@$$$$",
"@$$$$",
"@$$$$",
"@$$$$",
"@$$$$",
"@$$$$",
"@$$$$",
"@$$$$",
"@$$$$",
"@$$$$",
"@$$$$",
"@$$$$",
"@$$$$",
"@$$$$",
"@$$$$",
"@$$$$",
"@$$$$",
"@$$$$",
"@$$$$",
"@$$$$",
"@$$$$",
"@$$$$",
"@$$$$",
"@$$$$",
"@$$$$",
"@$$$$",
"@$$$$"};
