/* XPM */
static char * top_right_xpm[] = {
"5 44 6 1",
" 	c None",
".	c #DCDDE0",
"+	c #EEEFF1",
"@	c #EAEBED",
"#	c #CBCCD1",
"$	c #E7E8EB",
"...  ",
"+++. ",
"@@@+#",
"$$$$#",
"$$$$#",
"$$$$#",
"$$$$#",
"$$$$#",
"$$$$#",
"$$$$#",
"$$$$#",
"$$$$#",
"$$$$#",
"$$$$#",
"$$$$#",
"$$$$#",
"$$$$#",
"$$$$#",
"$$$$#",
"$$$$#",
"$$$$#",
"$$$$#",
"$$$$#",
"$$$$#",
"$$$$#",
"$$$$#",
"$$$$#",
"$$$$#",
"$$$$#",
"$$$$#",
"$$$$#",
"$$$$#",
"$$$$#",
"$$$$#",
"$$$$#",
"$$$$#",
"$$$$#",
"$$$$#",
"$$$$#",
"$$$$#",
"$$$$#",
"$$$$#",
"$$$$#",
"$$$$#"};
