/* XPM */
static char * close_prelight_xpm[] = {
"24 24 42 1",
" 	c None",
".	c #E7E8EB",
"+	c #E8DFE2",
"@	c #EEB2B6",
"#	c #F39399",
"$	c #F5848A",
"%	c #EEB2B7",
"&	c #ECC5C9",
"*	c #F5858B",
"=	c #F68086",
"-	c #EBC5C9",
";	c #F58086",
">	c #F68A91",
",	c #F58A8F",
"'	c #F4858B",
")	c #E7DFE2",
"!	c #F7F7F8",
"~	c #F4DADD",
"{	c #F58186",
"]	c #F4D8DB",
"^	c #F39398",
"/	c #F4CFD1",
"(	c #F7F8F9",
"_	c #F4DCDD",
":	c #F5DCDF",
"<	c #F5D3D5",
"[	c #F4D1D4",
"}	c #F4D4D7",
"|	c #F58288",
"1	c #F4DCDF",
"2	c #F4DFE1",
"3	c #F58388",
"4	c #F5DADD",
"5	c #F4CDD0",
"6	c #F5DCDD",
"7	c #F6F3F4",
"8	c #F4CCCE",
"9	c #EEB3B7",
"0	c #F6868B",
"a	c #E7DFE3",
"b	c #EBC6CA",
"c	c #F39499",
"........................",
"........................",
"........................",
"........................",
"........................",
"........+@#$$#%+........",
".......&*======*-.......",
"......&;========;-......",
".....+*==>====,==').....",
".....@===!~{{]!===%.....",
".....^===/(_:(<===#.....",
".....*====[((}====*.....",
".....*===|1((23==='.....",
".....#===4(55(6===#.....",
".....%===78==87===9.....",
".....+*==========0a.....",
"......-;========;b......",
".......-'======0b.......",
"........)%c$$c9a........",
"........................",
"........................",
"........................",
"........................",
"........................"};
