/* XPM */
static char * close_pressed_xpm[] = {
"24 24 45 1",
" 	c None",
".	c #E7E8EB",
"+	c #E8D7DB",
"@	c #EC888F",
"#	c #EF525A",
"$	c #F03740",
"%	c #EF535B",
"&	c #EC898F",
"*	c #EAAAAF",
"=	c #F03942",
"-	c #F13039",
";	c #E9ABB0",
">	c #F03039",
",	c #F23C45",
"'	c #F23B44",
")	c #F03A42",
"!	c #E7D8DC",
"~	c #FFFBFB",
"{	c #FAAEB1",
"]	c #F1323B",
"^	c #F9ABAE",
"/	c #FFFDFD",
"(	c #EC8990",
"_	c #EF5158",
":	c #F8999D",
"<	c #FFFFFF",
"[	c #FAB1B4",
"}	c #FAB0B4",
"|	c #F99FA3",
"1	c #F03841",
"2	c #F89DA1",
"3	c #F9A2A6",
"4	c #FAB2B5",
"5	c #FAB9BC",
"6	c #F1333C",
"7	c #FAAFB2",
"8	c #F8989C",
"9	c #FAAFB3",
"0	c #FEEDEE",
"a	c #F89297",
"b	c #EC8A90",
"c	c #F03A43",
"d	c #E7D9DC",
"e	c #E9ACB1",
"f	c #EF545B",
"........................",
"........................",
"........................",
"........................",
"........................",
"........+@#$$%&+........",
".......*=------=;.......",
"......*>-------->;......",
".....+=--,----'--)!.....",
".....@---~{]]^/---(.....",
"....._---:<[}<|---%.....",
".....1----2<<3----=.....",
".....=---]4<<56---).....",
".....#---7<88<9---%.....",
".....&---0a--a0---b.....",
".....+=----------cd.....",
"......;>-------->e......",
".......;)------ce.......",
"........!(f11fbd........",
"........................",
"........................",
"........................",
"........................",
"........................"};
