/* XPM */
static char * maximize_pressed_xpm[] = {
"24 24 32 1",
" 	c None",
".	c #E7E8EB",
"+	c #DAE1E9",
"@	c #99BDE6",
"#	c #6EA3E2",
"$	c #5897E2",
"%	c #6EA4E4",
"&	c #9ABCE6",
"*	c #B5CBE7",
"=	c #5998E1",
"-	c #5294E2",
";	c #B5CCE7",
">	c #5998E2",
",	c #DAE0EA",
"'	c #5596E3",
")	c #C7DDF6",
"!	c #FFFFFF",
"~	c #DDEAF9",
"{	c #9BBCE6",
"]	c #6DA3E3",
"^	c #5997E2",
"/	c #5395E2",
"(	c #CCE0F6",
"_	c #5797E3",
":	c #5495E2",
"<	c #C3DAF5",
"[	c #DFEBFA",
"}	c #9BBDE5",
"|	c #5A98E2",
"1	c #DAE1EA",
"2	c #B6CDE8",
"3	c #6FA4E3",
"........................",
"........................",
"........................",
"........................",
"........................",
"........+@#$$%&+........",
".......*=------=;.......",
"......*----------;......",
".....+=---------->,.....",
".....@----')!!~---{.....",
".....]---'-')!!---%.....",
".....^--/(_-:<!---=.....",
".....=--/!(_-:<--->.....",
".....#--/!!)'-'---%.....",
".....&---[!!)'----}.....",
".....+=----------|1.....",
"......;----------2......",
".......;>------|2.......",
"........,{3^^3}1........",
"........................",
"........................",
"........................",
"........................",
"........................"};
