/* XPM */
static char * top_left_xpm[] = {
"5 32 5 1",
" 	c None",
".	c #DCDDE0",
"+	c #EEEFF1",
"@	c #CBCCD1",
"#	c #E7E8EB",
"  ...",
" .+++",
"@+###",
"@####",
"@####",
"@####",
"@####",
"@####",
"@####",
"@####",
"@####",
"@####",
"@####",
"@####",
"@####",
"@####",
"@####",
"@####",
"@####",
"@####",
"@####",
"@####",
"@####",
"@####",
"@####",
"@####",
"@####",
"@####",
"@####",
"@####",
"@####",
"@####"};
